<svg width="860" height="200" viewBox="0 0 860 200" xmlns="http://www.w3.org/2000/svg">
  <defs>
    <linearGradient id="bg" x1="0" y1="0" x2="0" y2="1">
      <stop offset="0%" stop-color="#12121e"/>
      <stop offset="100%" stop-color="#1c1c2e"/>
    </linearGradient>
    <linearGradient id="redJC" x1="0" y1="0" x2="1" y2="1">
      <stop offset="0%" stop-color="#FF1A2E"/>
      <stop offset="100%" stop-color="#C2000F"/>
    </linearGradient>
    <linearGradient id="blueJC" x1="0" y1="0" x2="1" y2="1">
      <stop offset="0%" stop-color="#1DD4FF"/>
      <stop offset="100%" stop-color="#0897C4"/>
    </linearGradient>
    <filter id="redGlow" x="-40%" y="-40%" width="180%" height="180%">
      <feGaussianBlur in="SourceGraphic" stdDeviation="10" result="blur"/>
      <feColorMatrix in="blur" type="matrix"
        values="1 0 0 0 0.9   0 0 0 0 0   0 0 0 0 0.05   0 0 0 0.7 0" result="glow"/>
      <feMerge><feMergeNode in="glow"/><feMergeNode in="SourceGraphic"/></feMerge>
    </filter>
    <filter id="blueGlow" x="-40%" y="-40%" width="180%" height="180%">
      <feGaussianBlur in="SourceGraphic" stdDeviation="10" result="blur"/>
      <feColorMatrix in="blur" type="matrix"
        values="0 0 0 0 0.05   0 0 0 0 0.7   0 0 0 0 1   0 0 0 0.7 0" result="glow"/>
      <feMerge><feMergeNode in="glow"/><feMergeNode in="SourceGraphic"/></feMerge>
    </filter>
    <filter id="titleGlow">
      <feGaussianBlur in="SourceGraphic" stdDeviation="5" result="blur"/>
      <feMerge><feMergeNode in="blur"/><feMergeNode in="SourceGraphic"/></feMerge>
    </filter>
    <clipPath id="leftJCClip">
      <rect x="0" y="0" width="132" height="200" rx="18"/>
    </clipPath>
    <clipPath id="rightJCClip">
      <rect x="728" y="0" width="132" height="200" rx="18"/>
    </clipPath>
  </defs>

  <!-- ── Background ── -->
  <rect width="860" height="200" fill="url(#bg)" rx="16"/>

  <!-- Subtle dot grid -->
  <pattern id="dots" x="0" y="0" width="24" height="24" patternUnits="userSpaceOnUse">
    <circle cx="1" cy="1" r="1" fill="#ffffff" opacity="0.04"/>
  </pattern>
  <rect width="860" height="200" fill="url(#dots)" rx="16"/>

  <!-- ════════════ LEFT JOY-CON (Red) ════════════ -->
  <g filter="url(#redGlow)">
    <rect x="0" y="0" width="132" height="200" fill="url(#redJC)" rx="18"/>
  </g>
  <g clip-path="url(#leftJCClip)">
    <!-- Flat rail edge -->
    <rect x="114" y="0" width="18" height="200" fill="#A8000C"/>
    <!-- Shoulder highlight strip -->
    <rect x="0" y="0" width="132" height="6" fill="#FF4455" opacity="0.4"/>
    <!-- SL button -->
    <rect x="5" y="70" width="9" height="32" fill="#FF6677" rx="4"/>
    <!-- SR button notch on rail -->
    <rect x="116" y="78" width="5" height="20" fill="#800008" rx="2"/>
    <!-- Left analog stick -->
    <circle cx="65" cy="68" r="20" fill="#A8000C"/>
    <circle cx="65" cy="68" r="14" fill="#8C0009" opacity="0.9"/>
    <circle cx="60" cy="63" r="4" fill="#B8000F" opacity="0.5"/>
    <!-- D-pad -->
    <rect x="44" y="120" width="42" height="14" fill="#A8000C" rx="7"/>
    <rect x="58" y="106" width="14" height="42" fill="#A8000C" rx="7"/>
    <circle cx="65" cy="127" r="6" fill="#950009"/>
    <!-- Minus button -->
    <rect x="80" y="44" width="22" height="6" fill="#A8000C" rx="3"/>
    <!-- Screenshot button -->
    <rect x="46" y="152" width="24" height="24" fill="#A8000C" rx="5"/>
    <circle cx="58" cy="164" r="6" fill="#C2000F" opacity="0.7"/>
    <rect x="53" y="162" width="10" height="2" fill="#FF4455" opacity="0.6"/>
    <rect x="57" y="158" width="2" height="10" fill="#FF4455" opacity="0.6"/>
  </g>

  <!-- ════════════ RIGHT JOY-CON (Blue) ════════════ -->
  <g filter="url(#blueGlow)">
    <rect x="728" y="0" width="132" height="200" fill="url(#blueJC)" rx="18"/>
  </g>
  <g clip-path="url(#rightJCClip)">
    <!-- Flat rail edge -->
    <rect x="728" y="0" width="18" height="200" fill="#0779A0"/>
    <!-- Shoulder highlight -->
    <rect x="728" y="0" width="132" height="6" fill="#7EEEFF" opacity="0.3"/>
    <!-- SR button -->
    <rect x="846" y="70" width="9" height="32" fill="#7EEEFF" rx="4"/>
    <!-- SL notch -->
    <rect x="739" y="78" width="5" height="20" fill="#055A7A" rx="2"/>
    <!-- ABXY cluster -->
    <circle cx="795" cy="60" r="13" fill="#0779A0"/><!-- X -->
    <text x="795" y="65" text-anchor="middle" fill="white" font-family="Arial Black, sans-serif" font-size="12" font-weight="900">X</text>
    <circle cx="770" cy="82" r="13" fill="#0779A0"/><!-- Y -->
    <text x="770" y="87" text-anchor="middle" fill="white" font-family="Arial Black, sans-serif" font-size="12" font-weight="900">Y</text>
    <circle cx="820" cy="82" r="13" fill="#C2000F"/><!-- A -->
    <text x="820" y="87" text-anchor="middle" fill="white" font-family="Arial Black, sans-serif" font-size="12" font-weight="900">A</text>
    <circle cx="795" cy="104" r="13" fill="#D4880A"/><!-- B -->
    <text x="795" y="109" text-anchor="middle" fill="white" font-family="Arial Black, sans-serif" font-size="12" font-weight="900">B</text>
    <!-- Plus button -->
    <rect x="750" y="37" width="6" height="22" fill="#0779A0" rx="3"/>
    <rect x="741" y="46" width="24" height="6" fill="#0779A0" rx="3"/>
    <!-- Right analog stick -->
    <circle cx="795" cy="142" r="20" fill="#0779A0"/>
    <circle cx="795" cy="142" r="14" fill="#0669889" opacity="0.9"/>
    <circle cx="790" cy="137" r="4" fill="#1AAACE" opacity="0.5"/>
    <!-- Home button -->
    <circle cx="770" cy="158" r="12" fill="#0779A0"/>
    <circle cx="770" cy="158" r="8" fill="#055A7A"/>
    <circle cx="770" cy="158" r="4" fill="#0898C0" opacity="0.8"/>
  </g>

  <!-- ════════════ TABLET BODY ════════════ -->
  <rect x="128" y="6" width="604" height="188" fill="#0e0e18" rx="6"/>
  <!-- Screen -->
  <rect x="136" y="14" width="588" height="172" fill="#0a0a14" rx="4"/>
  <!-- Screen inner glow -->
  <rect x="136" y="14" width="588" height="172" fill="none" stroke="#2a2a4a" stroke-width="1" rx="4"/>

  <!-- ── App title ── -->
  <text x="430" y="90"
        text-anchor="middle"
        fill="white"
        font-family="'Arial Black', Impact, sans-serif"
        font-size="50"
        font-weight="900"
        letter-spacing="3"
        filter="url(#titleGlow)">Switch 7zip</text>

  <!-- Three-tone underline -->
  <rect x="218" y="105" width="84"  height="3" fill="#C2000F" rx="1.5"/>
  <rect x="302" y="105" width="256" height="3" fill="white"   rx="1.5" opacity="0.7"/>
  <rect x="558" y="105" width="84"  height="3" fill="#0AAFE0" rx="1.5"/>

  <!-- Subtitle -->
  <text x="430" y="138"
        text-anchor="middle"
        fill="#9090b8"
        font-family="Arial, sans-serif"
        font-size="14"
        letter-spacing="1.5">FILE MANAGER &amp; ARCHIVE UTILITY</text>

  <!-- Pill: maintained by -->
  <rect x="330" y="152" width="200" height="22" fill="#1e1e32" rx="11" stroke="#2e2e4e" stroke-width="1"/>
  <text x="430" y="167"
        text-anchor="middle"
        fill="#6868a0"
        font-family="Arial, sans-serif"
        font-size="11"
        letter-spacing="0.5">🛠 maintained by <tspan fill="#9898cc" font-weight="bold">Xhulio</tspan></text>
</svg>
